<svg xmlns="http://www.w3.org/2000/svg" viewBox="0 0 18 18"><defs><style>.cls-1{fill:#fff;}.cls-2{opacity:0.2;}.cls-3,.cls-5{fill:none;stroke-miterlimit:10;stroke-width:0.5px;}.cls-3{stroke:#000;}.cls-4{fill:#4d4d4d;}.cls-5{stroke:#4d4d4d;}</style></defs><title>web footer logoAsset 47</title><g id="Layer_2" data-name="Layer 2"><g id="Layer_1-2" data-name="Layer 1"><circle class="cls-1" cx="9" cy="9" r="9"/><g class="cls-2"><path d="M2.48,9.25c1.17-1.72,3.68-2.62,5-2.3L7.68,7a.17.17,0,0,0,.15-.31,2.16,2.16,0,0,0-.36-.19A4.54,4.54,0,0,0,4.68,6.4L4.21,4.57c1.58-.28,4.46.75,5.13,1.88l.12.22a.17.17,0,0,0,.32-.11,2.13,2.13,0,0,0-.12-.39A4.54,4.54,0,0,0,7.79,4.1l1-1.63c1.32.91,2.62,3.68,2.3,5,0,.09,0,.17-.07.25a.17.17,0,0,0,.31.15,2.17,2.17,0,0,0,.19-.36,4.54,4.54,0,0,0,.13-2.78l1.83-.47c.28,1.58-.75,4.46-1.88,5.13l-.22.12a.17.17,0,0,0,.11.32,2.15,2.15,0,0,0,.39-.12A4.54,4.54,0,0,0,13.9,7.79l1.63,1c-.91,1.32-3.68,2.62-5,2.3L10.32,11a.17.17,0,0,0-.15.31,2.16,2.16,0,0,0,.36.19,4.54,4.54,0,0,0,2.78.13l.47,1.83c-1.58.28-4.46-.75-5.13-1.88l-.12-.22a.17.17,0,0,0-.32.11,2.17,2.17,0,0,0,.12.39,4.54,4.54,0,0,0,1.87,2.06l-1,1.63c-1.32-.91-2.62-3.68-2.3-5,0-.09,0-.17.07-.25a.17.17,0,0,0-.31-.15,2.17,2.17,0,0,0-.19.36,4.54,4.54,0,0,0-.13,2.78l-1.83.47c-.28-1.58.75-4.46,1.88-5.13h0l.22-.12a.17.17,0,0,0-.11-.32,2.19,2.19,0,0,0-.39.12A4.54,4.54,0,0,0,4.1,10.21ZM9,7.65a1.35,1.35,0,1,0,.94.43A1.35,1.35,0,0,0,9,7.65Z"/><path class="cls-3" d="M2.48,9.25c1.17-1.72,3.68-2.62,5-2.3L7.68,7a.17.17,0,0,0,.15-.31,2.16,2.16,0,0,0-.36-.19A4.54,4.54,0,0,0,4.68,6.4L4.21,4.57c1.58-.28,4.46.75,5.13,1.88l.12.22a.17.17,0,0,0,.32-.11,2.13,2.13,0,0,0-.12-.39A4.54,4.54,0,0,0,7.79,4.1l1-1.63c1.32.91,2.62,3.68,2.3,5,0,.09,0,.17-.07.25a.17.17,0,0,0,.31.15,2.17,2.17,0,0,0,.19-.36,4.54,4.54,0,0,0,.13-2.78l1.83-.47c.28,1.58-.75,4.46-1.88,5.13l-.22.12a.17.17,0,0,0,.11.32,2.15,2.15,0,0,0,.39-.12A4.54,4.54,0,0,0,13.9,7.79l1.63,1c-.91,1.32-3.68,2.62-5,2.3L10.32,11a.17.17,0,0,0-.15.31,2.16,2.16,0,0,0,.36.19,4.54,4.54,0,0,0,2.78.13l.47,1.83c-1.58.28-4.46-.75-5.13-1.88l-.12-.22a.17.17,0,0,0-.32.11,2.17,2.17,0,0,0,.12.39,4.54,4.54,0,0,0,1.87,2.06l-1,1.63c-1.32-.91-2.62-3.68-2.3-5,0-.09,0-.17.07-.25a.17.17,0,0,0-.31-.15,2.17,2.17,0,0,0-.19.36,4.54,4.54,0,0,0-.13,2.78l-1.83.47c-.28-1.58.75-4.46,1.88-5.13h0l.22-.12a.17.17,0,0,0-.11-.32,2.19,2.19,0,0,0-.39.12A4.54,4.54,0,0,0,4.1,10.21ZM9,7.65a1.35,1.35,0,1,0,.94.43A1.35,1.35,0,0,0,9,7.65Z"/></g><path class="cls-4" d="M2.48,9.25c1.17-1.72,3.68-2.62,5-2.3L7.68,7a.17.17,0,0,0,.15-.31,2.16,2.16,0,0,0-.36-.19A4.54,4.54,0,0,0,4.68,6.4L4.21,4.57c1.58-.28,4.46.75,5.13,1.88l.12.22a.17.17,0,0,0,.32-.11,2.13,2.13,0,0,0-.12-.39A4.54,4.54,0,0,0,7.79,4.1l1-1.63c1.32.91,2.62,3.68,2.3,5,0,.09,0,.17-.07.25a.17.17,0,0,0,.31.15,2.17,2.17,0,0,0,.19-.36,4.54,4.54,0,0,0,.13-2.78l1.83-.47c.28,1.58-.75,4.46-1.88,5.13l-.22.12a.17.17,0,0,0,.11.32,2.15,2.15,0,0,0,.39-.12A4.54,4.54,0,0,0,13.9,7.79l1.63,1c-.91,1.32-3.68,2.62-5,2.3L10.32,11a.17.17,0,0,0-.15.31,2.16,2.16,0,0,0,.36.19,4.54,4.54,0,0,0,2.78.13l.47,1.83c-1.58.28-4.46-.75-5.13-1.88l-.12-.22a.17.17,0,0,0-.32.11,2.17,2.17,0,0,0,.12.39,4.54,4.54,0,0,0,1.87,2.06l-1,1.63c-1.32-.91-2.62-3.68-2.3-5,0-.09,0-.17.07-.25a.17.17,0,0,0-.31-.15,2.17,2.17,0,0,0-.19.36,4.54,4.54,0,0,0-.13,2.78l-1.83.47c-.28-1.58.75-4.46,1.88-5.13h0l.22-.12a.17.17,0,0,0-.11-.32,2.19,2.19,0,0,0-.39.12A4.54,4.54,0,0,0,4.1,10.21ZM9,7.65a1.35,1.35,0,1,0,.94.43A1.35,1.35,0,0,0,9,7.65Z"/><path class="cls-5" d="M2.48,9.25c1.17-1.72,3.68-2.62,5-2.3L7.68,7a.17.17,0,0,0,.15-.31,2.16,2.16,0,0,0-.36-.19A4.54,4.54,0,0,0,4.68,6.4L4.21,4.57c1.58-.28,4.46.75,5.13,1.88l.12.22a.17.17,0,0,0,.32-.11,2.13,2.13,0,0,0-.12-.39A4.54,4.54,0,0,0,7.79,4.1l1-1.63c1.32.91,2.62,3.68,2.3,5,0,.09,0,.17-.07.25a.17.17,0,0,0,.31.15,2.17,2.17,0,0,0,.19-.36,4.54,4.54,0,0,0,.13-2.78l1.83-.47c.28,1.58-.75,4.46-1.88,5.13l-.22.12a.17.17,0,0,0,.11.32,2.15,2.15,0,0,0,.39-.12A4.54,4.54,0,0,0,13.9,7.79l1.63,1c-.91,1.32-3.68,2.62-5,2.3L10.32,11a.17.17,0,0,0-.15.31,2.16,2.16,0,0,0,.36.19,4.54,4.54,0,0,0,2.78.13l.47,1.83c-1.58.28-4.46-.75-5.13-1.88l-.12-.22a.17.17,0,0,0-.32.11,2.17,2.17,0,0,0,.12.39,4.54,4.54,0,0,0,1.87,2.06l-1,1.63c-1.32-.91-2.62-3.68-2.3-5,0-.09,0-.17.07-.25a.17.17,0,0,0-.31-.15,2.17,2.17,0,0,0-.19.36,4.54,4.54,0,0,0-.13,2.78l-1.83.47c-.28-1.58.75-4.46,1.88-5.13h0l.22-.12a.17.17,0,0,0-.11-.32,2.19,2.19,0,0,0-.39.12A4.54,4.54,0,0,0,4.1,10.21ZM9,7.65a1.35,1.35,0,1,0,.94.43A1.35,1.35,0,0,0,9,7.65Z"/></g></g></svg>