<svg xmlns="http://www.w3.org/2000/svg" viewBox="0 0 80 80"><defs><style>.cls-1{fill:#cfcfcf;}.cls-2{opacity:0.2;}.cls-3,.cls-5{fill:none;stroke-miterlimit:10;stroke-width:0.9px;}.cls-3{stroke:#000;}.cls-4{fill:#fff;}.cls-5{stroke:#fff;}</style></defs><title>w on 777777</title><g id="Layer_2" data-name="Layer 2"><g id="Layer_1-2" data-name="Layer 1"><circle class="cls-1" cx="40" cy="40" r="40"/><g class="cls-2"><path d="M11,41.13c5.19-7.63,16.36-11.65,22-10.22q.56.14,1.09.31a.77.77,0,0,0,.66-1.38A9.62,9.62,0,0,0,33.17,29a20.18,20.18,0,0,0-12.36-.58l-2.11-8.13c7-1.26,19.8,3.33,22.79,8.35.2.33.38.67.55,1a.77.77,0,0,0,1.44-.51,9.47,9.47,0,0,0-.54-1.73,20.17,20.17,0,0,0-8.33-9.15L38.87,11c5.85,4.07,11.65,16.36,10.22,22-.1.38-.2.74-.31,1.09a.77.77,0,0,0,1.38.66A9.64,9.64,0,0,0,51,33.17a20.18,20.18,0,0,0,.58-12.36l8.13-2.11c1.26,7-3.33,19.8-8.35,22.79q-.5.3-1,.55a.77.77,0,0,0,.51,1.44,9.57,9.57,0,0,0,1.73-.54,20.17,20.17,0,0,0,9.15-8.33L69,38.87c-4.07,5.85-16.36,11.65-22,10.22-.38-.1-.74-.2-1.09-.31a.77.77,0,0,0-.66,1.38,9.58,9.58,0,0,0,1.61.84,20.18,20.18,0,0,0,12.36.58l2.11,8.13c-7,1.26-19.8-3.33-22.79-8.35q-.3-.5-.55-1a.77.77,0,0,0-1.44.51,9.64,9.64,0,0,0,.54,1.73,20.18,20.18,0,0,0,8.33,9.15L41.13,69c-5.85-4.07-11.65-16.36-10.22-22,.1-.38.2-.74.31-1.09a.77.77,0,0,0-1.38-.66A9.64,9.64,0,0,0,29,46.84a20.18,20.18,0,0,0-.58,12.36l-8.13,2.11c-1.26-7,3.33-19.8,8.35-22.79h0q.5-.3,1-.55a.77.77,0,0,0-.51-1.44,9.74,9.74,0,0,0-1.73.54,20.18,20.18,0,0,0-9.15,8.33ZM40.21,34a6,6,0,1,0,4.17,1.9A6,6,0,0,0,40.21,34Z"/><path class="cls-3" d="M11,41.13c5.19-7.63,16.36-11.65,22-10.22q.56.14,1.09.31a.77.77,0,0,0,.66-1.38A9.62,9.62,0,0,0,33.17,29a20.18,20.18,0,0,0-12.36-.58l-2.11-8.13c7-1.26,19.8,3.33,22.79,8.35.2.33.38.67.55,1a.77.77,0,0,0,1.44-.51,9.47,9.47,0,0,0-.54-1.73,20.17,20.17,0,0,0-8.33-9.15L38.87,11c5.85,4.07,11.65,16.36,10.22,22-.1.38-.2.74-.31,1.09a.77.77,0,0,0,1.38.66A9.64,9.64,0,0,0,51,33.17a20.18,20.18,0,0,0,.58-12.36l8.13-2.11c1.26,7-3.33,19.8-8.35,22.79q-.5.3-1,.55a.77.77,0,0,0,.51,1.44,9.57,9.57,0,0,0,1.73-.54,20.17,20.17,0,0,0,9.15-8.33L69,38.87c-4.07,5.85-16.36,11.65-22,10.22-.38-.1-.74-.2-1.09-.31a.77.77,0,0,0-.66,1.38,9.58,9.58,0,0,0,1.61.84,20.18,20.18,0,0,0,12.36.58l2.11,8.13c-7,1.26-19.8-3.33-22.79-8.35q-.3-.5-.55-1a.77.77,0,0,0-1.44.51,9.64,9.64,0,0,0,.54,1.73,20.18,20.18,0,0,0,8.33,9.15L41.13,69c-5.85-4.07-11.65-16.36-10.22-22,.1-.38.2-.74.31-1.09a.77.77,0,0,0-1.38-.66A9.64,9.64,0,0,0,29,46.84a20.18,20.18,0,0,0-.58,12.36l-8.13,2.11c-1.26-7,3.33-19.8,8.35-22.79h0q.5-.3,1-.55a.77.77,0,0,0-.51-1.44,9.74,9.74,0,0,0-1.73.54,20.18,20.18,0,0,0-9.15,8.33ZM40.21,34a6,6,0,1,0,4.17,1.9A6,6,0,0,0,40.21,34Z"/></g><path class="cls-4" d="M11,41.13c5.19-7.63,16.36-11.65,22-10.22q.56.14,1.09.31a.77.77,0,0,0,.66-1.38A9.62,9.62,0,0,0,33.17,29a20.18,20.18,0,0,0-12.36-.58l-2.11-8.13c7-1.26,19.8,3.33,22.79,8.35.2.33.38.67.55,1a.77.77,0,0,0,1.44-.51,9.47,9.47,0,0,0-.54-1.73,20.17,20.17,0,0,0-8.33-9.15L38.87,11c5.85,4.07,11.65,16.36,10.22,22-.1.38-.2.74-.31,1.09a.77.77,0,0,0,1.38.66A9.64,9.64,0,0,0,51,33.17a20.18,20.18,0,0,0,.58-12.36l8.13-2.11c1.26,7-3.33,19.8-8.35,22.79q-.5.3-1,.55a.77.77,0,0,0,.51,1.44,9.57,9.57,0,0,0,1.73-.54,20.17,20.17,0,0,0,9.15-8.33L69,38.87c-4.07,5.85-16.36,11.65-22,10.22-.38-.1-.74-.2-1.09-.31a.77.77,0,0,0-.66,1.38,9.58,9.58,0,0,0,1.61.84,20.18,20.18,0,0,0,12.36.58l2.11,8.13c-7,1.26-19.8-3.33-22.79-8.35q-.3-.5-.55-1a.77.77,0,0,0-1.44.51,9.64,9.64,0,0,0,.54,1.73,20.18,20.18,0,0,0,8.33,9.15L41.13,69c-5.85-4.07-11.65-16.36-10.22-22,.1-.38.2-.74.31-1.09a.77.77,0,0,0-1.38-.66A9.64,9.64,0,0,0,29,46.84a20.18,20.18,0,0,0-.58,12.36l-8.13,2.11c-1.26-7,3.33-19.8,8.35-22.79h0q.5-.3,1-.55a.77.77,0,0,0-.51-1.44,9.74,9.74,0,0,0-1.73.54,20.18,20.18,0,0,0-9.15,8.33ZM40.21,34a6,6,0,1,0,4.17,1.9A6,6,0,0,0,40.21,34Z"/><path class="cls-5" d="M11,41.13c5.19-7.63,16.36-11.65,22-10.22q.56.14,1.09.31a.77.77,0,0,0,.66-1.38A9.62,9.62,0,0,0,33.17,29a20.18,20.18,0,0,0-12.36-.58l-2.11-8.13c7-1.26,19.8,3.33,22.79,8.35.2.33.38.67.55,1a.77.77,0,0,0,1.44-.51,9.47,9.47,0,0,0-.54-1.73,20.17,20.17,0,0,0-8.33-9.15L38.87,11c5.85,4.07,11.65,16.36,10.22,22-.1.38-.2.74-.31,1.09a.77.77,0,0,0,1.38.66A9.64,9.64,0,0,0,51,33.17a20.18,20.18,0,0,0,.58-12.36l8.13-2.11c1.26,7-3.33,19.8-8.35,22.79q-.5.3-1,.55a.77.77,0,0,0,.51,1.44,9.57,9.57,0,0,0,1.73-.54,20.17,20.17,0,0,0,9.15-8.33L69,38.87c-4.07,5.85-16.36,11.65-22,10.22-.38-.1-.74-.2-1.09-.31a.77.77,0,0,0-.66,1.38,9.58,9.58,0,0,0,1.61.84,20.18,20.18,0,0,0,12.36.58l2.11,8.13c-7,1.26-19.8-3.33-22.79-8.35q-.3-.5-.55-1a.77.77,0,0,0-1.44.51,9.64,9.64,0,0,0,.54,1.73,20.18,20.18,0,0,0,8.33,9.15L41.13,69c-5.85-4.07-11.65-16.36-10.22-22,.1-.38.2-.74.31-1.09a.77.77,0,0,0-1.38-.66A9.64,9.64,0,0,0,29,46.84a20.18,20.18,0,0,0-.58,12.36l-8.13,2.11c-1.26-7,3.33-19.8,8.35-22.79h0q.5-.3,1-.55a.77.77,0,0,0-.51-1.44,9.74,9.74,0,0,0-1.73.54,20.18,20.18,0,0,0-9.15,8.33ZM40.21,34a6,6,0,1,0,4.17,1.9A6,6,0,0,0,40.21,34Z"/></g></g></svg>
