<svg xmlns="http://www.w3.org/2000/svg" viewBox="0 0 80 80"><defs><style>.cls-1{fill:#fff;}.cls-2{opacity:0.2;}.cls-3,.cls-5{fill:none;stroke-miterlimit:10;stroke-width:1.4px;}.cls-3{stroke:#000;}.cls-4{fill:#3f51b5;}.cls-5{stroke:#3f51b5;}</style></defs><title>pri on w</title><g id="Layer_2" data-name="Layer 2"><g id="Layer_1-2" data-name="Layer 1"><circle class="cls-1" cx="40" cy="40" r="40"/><g class="cls-2"><path d="M10.5,41.15c5.28-7.76,16.64-11.85,22.4-10.39q.57.15,1.11.32a.79.79,0,0,0,.67-1.4A9.78,9.78,0,0,0,33,28.82a20.53,20.53,0,0,0-12.58-.59L18.33,20c7.13-1.28,20.14,3.38,23.19,8.49.2.34.39.68.56,1a.79.79,0,0,0,1.47-.52A9.63,9.63,0,0,0,43,27.18a20.52,20.52,0,0,0-8.48-9.31l4.33-7.37C44.8,14.64,50.7,27.14,49.24,32.9c-.1.38-.2.75-.32,1.11a.79.79,0,0,0,1.4.67A9.8,9.8,0,0,0,51.18,33a20.53,20.53,0,0,0,.59-12.58L60,18.33c1.28,7.13-3.39,20.14-8.49,23.19q-.51.3-1,.56a.79.79,0,0,0,.52,1.47A9.73,9.73,0,0,0,52.82,43a20.52,20.52,0,0,0,9.31-8.48l7.37,4.33C65.36,44.8,52.86,50.7,47.1,49.24c-.38-.1-.75-.2-1.11-.32a.79.79,0,0,0-.67,1.4,9.75,9.75,0,0,0,1.64.86,20.53,20.53,0,0,0,12.58.59L61.67,60c-7.13,1.28-20.14-3.38-23.19-8.49q-.3-.51-.56-1a.79.79,0,0,0-1.47.52A9.81,9.81,0,0,0,37,52.82a20.52,20.52,0,0,0,8.48,9.31L41.15,69.5C35.2,65.36,29.3,52.86,30.76,47.1c.1-.38.2-.75.32-1.11a.79.79,0,0,0-1.4-.67A9.81,9.81,0,0,0,28.82,47a20.53,20.53,0,0,0-.59,12.58L20,61.67c-1.28-7.13,3.38-20.14,8.49-23.19h0q.51-.3,1-.56a.79.79,0,0,0-.52-1.47,9.9,9.9,0,0,0-1.76.55,20.52,20.52,0,0,0-9.31,8.48Zm29.72-7.24a6.09,6.09,0,1,0,4.24,1.94A6.09,6.09,0,0,0,40.22,33.91Z"/><path class="cls-3" d="M10.5,41.15c5.28-7.76,16.64-11.85,22.4-10.39q.57.15,1.11.32a.79.79,0,0,0,.67-1.4A9.78,9.78,0,0,0,33,28.82a20.53,20.53,0,0,0-12.58-.59L18.33,20c7.13-1.28,20.14,3.38,23.19,8.49.2.34.39.68.56,1a.79.79,0,0,0,1.47-.52A9.63,9.63,0,0,0,43,27.18a20.52,20.52,0,0,0-8.48-9.31l4.33-7.37C44.8,14.64,50.7,27.14,49.24,32.9c-.1.38-.2.75-.32,1.11a.79.79,0,0,0,1.4.67A9.8,9.8,0,0,0,51.18,33a20.53,20.53,0,0,0,.59-12.58L60,18.33c1.28,7.13-3.39,20.14-8.49,23.19q-.51.3-1,.56a.79.79,0,0,0,.52,1.47A9.73,9.73,0,0,0,52.82,43a20.52,20.52,0,0,0,9.31-8.48l7.37,4.33C65.36,44.8,52.86,50.7,47.1,49.24c-.38-.1-.75-.2-1.11-.32a.79.79,0,0,0-.67,1.4,9.75,9.75,0,0,0,1.64.86,20.53,20.53,0,0,0,12.58.59L61.67,60c-7.13,1.28-20.14-3.38-23.19-8.49q-.3-.51-.56-1a.79.79,0,0,0-1.47.52A9.81,9.81,0,0,0,37,52.82a20.52,20.52,0,0,0,8.48,9.31L41.15,69.5C35.2,65.36,29.3,52.86,30.76,47.1c.1-.38.2-.75.32-1.11a.79.79,0,0,0-1.4-.67A9.81,9.81,0,0,0,28.82,47a20.53,20.53,0,0,0-.59,12.58L20,61.67c-1.28-7.13,3.38-20.14,8.49-23.19h0q.51-.3,1-.56a.79.79,0,0,0-.52-1.47,9.9,9.9,0,0,0-1.76.55,20.52,20.52,0,0,0-9.31,8.48Zm29.72-7.24a6.09,6.09,0,1,0,4.24,1.94A6.09,6.09,0,0,0,40.22,33.91Z"/></g><path class="cls-4" d="M10.5,41.15c5.28-7.76,16.64-11.85,22.4-10.39q.57.15,1.11.32a.79.79,0,0,0,.67-1.4A9.78,9.78,0,0,0,33,28.82a20.53,20.53,0,0,0-12.58-.59L18.33,20c7.13-1.28,20.14,3.38,23.19,8.49.2.34.39.68.56,1a.79.79,0,0,0,1.47-.52A9.63,9.63,0,0,0,43,27.18a20.52,20.52,0,0,0-8.48-9.31l4.33-7.37C44.8,14.64,50.7,27.14,49.24,32.9c-.1.38-.2.75-.32,1.11a.79.79,0,0,0,1.4.67A9.8,9.8,0,0,0,51.18,33a20.53,20.53,0,0,0,.59-12.58L60,18.33c1.28,7.13-3.39,20.14-8.49,23.19q-.51.3-1,.56a.79.79,0,0,0,.52,1.47A9.73,9.73,0,0,0,52.82,43a20.52,20.52,0,0,0,9.31-8.48l7.37,4.33C65.36,44.8,52.86,50.7,47.1,49.24c-.38-.1-.75-.2-1.11-.32a.79.79,0,0,0-.67,1.4,9.75,9.75,0,0,0,1.64.86,20.53,20.53,0,0,0,12.58.59L61.67,60c-7.13,1.28-20.14-3.38-23.19-8.49q-.3-.51-.56-1a.79.79,0,0,0-1.47.52A9.81,9.81,0,0,0,37,52.82a20.52,20.52,0,0,0,8.48,9.31L41.15,69.5C35.2,65.36,29.3,52.86,30.76,47.1c.1-.38.2-.75.32-1.11a.79.79,0,0,0-1.4-.67A9.81,9.81,0,0,0,28.82,47a20.53,20.53,0,0,0-.59,12.58L20,61.67c-1.28-7.13,3.38-20.14,8.49-23.19h0q.51-.3,1-.56a.79.79,0,0,0-.52-1.47,9.9,9.9,0,0,0-1.76.55,20.52,20.52,0,0,0-9.31,8.48Zm29.72-7.24a6.09,6.09,0,1,0,4.24,1.94A6.09,6.09,0,0,0,40.22,33.91Z"/><path class="cls-5" d="M10.5,41.15c5.28-7.76,16.64-11.85,22.4-10.39q.57.15,1.11.32a.79.79,0,0,0,.67-1.4A9.78,9.78,0,0,0,33,28.82a20.53,20.53,0,0,0-12.58-.59L18.33,20c7.13-1.28,20.14,3.38,23.19,8.49.2.34.39.68.56,1a.79.79,0,0,0,1.47-.52A9.63,9.63,0,0,0,43,27.18a20.52,20.52,0,0,0-8.48-9.31l4.33-7.37C44.8,14.64,50.7,27.14,49.24,32.9c-.1.38-.2.75-.32,1.11a.79.79,0,0,0,1.4.67A9.8,9.8,0,0,0,51.18,33a20.53,20.53,0,0,0,.59-12.58L60,18.33c1.28,7.13-3.39,20.14-8.49,23.19q-.51.3-1,.56a.79.79,0,0,0,.52,1.47A9.73,9.73,0,0,0,52.82,43a20.52,20.52,0,0,0,9.31-8.48l7.37,4.33C65.36,44.8,52.86,50.7,47.1,49.24c-.38-.1-.75-.2-1.11-.32a.79.79,0,0,0-.67,1.4,9.75,9.75,0,0,0,1.64.86,20.53,20.53,0,0,0,12.58.59L61.67,60c-7.13,1.28-20.14-3.38-23.19-8.49q-.3-.51-.56-1a.79.79,0,0,0-1.47.52A9.81,9.81,0,0,0,37,52.82a20.52,20.52,0,0,0,8.48,9.31L41.15,69.5C35.2,65.36,29.3,52.86,30.76,47.1c.1-.38.2-.75.32-1.11a.79.79,0,0,0-1.4-.67A9.81,9.81,0,0,0,28.82,47a20.53,20.53,0,0,0-.59,12.58L20,61.67c-1.28-7.13,3.38-20.14,8.49-23.19h0q.51-.3,1-.56a.79.79,0,0,0-.52-1.47,9.9,9.9,0,0,0-1.76.55,20.52,20.52,0,0,0-9.31,8.48Zm29.72-7.24a6.09,6.09,0,1,0,4.24,1.94A6.09,6.09,0,0,0,40.22,33.91Z"/></g></g></svg>