<?xml version="1.0" encoding="utf-8"?>
<!-- Generator: Adobe Illustrator 19.0.0, SVG Export Plug-In . SVG Version: 6.00 Build 0)  -->
<svg version="1.1" id="Layer_1" xmlns="http://www.w3.org/2000/svg" xmlns:xlink="http://www.w3.org/1999/xlink" x="0px" y="0px"
	 viewBox="-24 77 150.9 47" style="enable-background:new -24 77 150.9 47;" xml:space="preserve">
<style type="text/css">
	.st0{fill:#3F51B5;}
	.st1{opacity:0.2;}
	.st2{fill:none;stroke:#000000;stroke-width:0.5;stroke-miterlimit:10;}
	.st3{fill:#FFFFFF;}
	.st4{fill:none;stroke:#FFFFFF;stroke-width:0.5;stroke-miterlimit:10;}
	.st5{fill:#666666;}
	.st6{font-family:'Lato-Light';}
	.st7{font-size:23px;}
	.st8{fill:none;}
</style>
<title>Engine log inAsset 64</title>
<g id="Layer_2">
	<g id="Layer_1-2">
		<circle class="st0" cx="14.2" cy="99.9" r="22.2"/>
		<g class="st1">
			<path d="M-1.9,100.6c2.9-4.2,9.1-6.5,12.2-5.7l0.6,0.2c0.2,0.1,0.5,0,0.5-0.3c0.1-0.2,0-0.4-0.2-0.5c-0.3-0.2-0.6-0.3-0.9-0.5
				c-2.2-0.8-4.6-0.9-6.9-0.3L2.3,89c3.9-0.7,11,1.8,12.7,4.6c0.1,0.2,0.2,0.4,0.3,0.6c0.1,0.2,0.4,0.3,0.6,0.2
				c0.2-0.1,0.2-0.3,0.2-0.4c-0.1-0.3-0.2-0.7-0.3-1c-1-2.1-2.6-3.9-4.6-5.1l2.4-4c3.2,2.3,6.5,9.1,5.7,12.2c0,0.2-0.1,0.4-0.2,0.6
				c-0.1,0.2,0,0.5,0.3,0.5c0.2,0.1,0.4,0,0.5-0.2c0.2-0.3,0.3-0.6,0.5-0.9c0.8-2.2,0.9-4.6,0.3-6.9l4.5-1.2
				c0.7,3.9-1.8,11-4.6,12.7l-0.5,0.3c-0.2,0.1-0.3,0.4-0.2,0.6c0.1,0.2,0.3,0.2,0.4,0.2c0.3-0.1,0.7-0.2,1-0.3
				c2.1-1,3.9-2.6,5.1-4.6l4,2.4c-2.3,3.2-9.1,6.5-12.2,5.7l-0.6-0.2c-0.2-0.1-0.5,0-0.5,0.3c-0.1,0.2,0,0.4,0.2,0.5
				c0.3,0.2,0.6,0.3,0.9,0.5c2.2,0.8,4.6,0.9,6.9,0.3l1.2,4.5c-3.9,0.7-11-1.9-12.7-4.6c-0.1-0.2-0.2-0.4-0.3-0.6
				c-0.1-0.2-0.4-0.3-0.6-0.2c-0.2,0.1-0.2,0.3-0.2,0.4c0.1,0.3,0.2,0.7,0.3,1c1,2.1,2.6,3.9,4.6,5l-2.4,4c-3.2-2.2-6.5-9-5.7-12.2
				c0-0.2,0.1-0.4,0.2-0.6c0.1-0.2,0-0.5-0.3-0.5c-0.2-0.1-0.4,0-0.5,0.2c-0.2,0.3-0.3,0.6-0.5,0.9c-0.8,2.2-0.9,4.6-0.3,6.9
				l-4.5,1.2c-0.7-3.9,1.9-11,4.6-12.7l0,0l0.5-0.3c0.2-0.1,0.3-0.4,0.2-0.6C8.5,98.1,8.3,98,8.1,98c-0.3,0.1-0.7,0.2-1,0.3
				c-2.1,1-3.9,2.6-5.1,4.6L-1.9,100.6z M14.3,96.6c-1.8-0.1-3.4,1.4-3.4,3.2s1.4,3.4,3.2,3.4s3.4-1.4,3.4-3.2
				c0-0.9-0.3-1.7-0.9-2.4C16,97,15.2,96.6,14.3,96.6L14.3,96.6z"/>
			<path class="st2" d="M-1.9,100.6c2.9-4.2,9.1-6.5,12.2-5.7l0.6,0.2c0.2,0.1,0.5,0,0.5-0.3c0.1-0.2,0-0.4-0.2-0.5
				c-0.3-0.2-0.6-0.3-0.9-0.5c-2.2-0.8-4.6-0.9-6.9-0.3L2.3,89c3.9-0.7,11,1.8,12.7,4.6c0.1,0.2,0.2,0.4,0.3,0.6
				c0.1,0.2,0.4,0.3,0.6,0.2c0.2-0.1,0.2-0.3,0.2-0.4c-0.1-0.3-0.2-0.7-0.3-1c-1-2.1-2.6-3.9-4.6-5.1l2.4-4
				c3.2,2.3,6.5,9.1,5.7,12.2c0,0.2-0.1,0.4-0.2,0.6c-0.1,0.2,0,0.5,0.3,0.5c0.2,0.1,0.4,0,0.5-0.2c0.2-0.3,0.3-0.6,0.5-0.9
				c0.8-2.2,0.9-4.6,0.3-6.9l4.5-1.2c0.7,3.9-1.8,11-4.6,12.7l-0.5,0.3c-0.2,0.1-0.3,0.4-0.2,0.6c0.1,0.2,0.3,0.2,0.4,0.2
				c0.3-0.1,0.7-0.2,1-0.3c2.1-1,3.9-2.6,5.1-4.6l4,2.4c-2.3,3.2-9.1,6.5-12.2,5.7l-0.6-0.2c-0.2-0.1-0.5,0-0.5,0.3
				c-0.1,0.2,0,0.4,0.2,0.5c0.3,0.2,0.6,0.3,0.9,0.5c2.2,0.8,4.6,0.9,6.9,0.3l1.2,4.5c-3.9,0.7-11-1.9-12.7-4.6
				c-0.1-0.2-0.2-0.4-0.3-0.6c-0.1-0.2-0.4-0.3-0.6-0.2c-0.2,0.1-0.2,0.3-0.2,0.4c0.1,0.3,0.2,0.7,0.3,1c1,2.1,2.6,3.9,4.6,5l-2.4,4
				c-3.2-2.2-6.5-9-5.7-12.2c0-0.2,0.1-0.4,0.2-0.6c0.1-0.2,0-0.5-0.3-0.5c-0.2-0.1-0.4,0-0.5,0.2c-0.2,0.3-0.3,0.6-0.5,0.9
				c-0.8,2.2-0.9,4.6-0.3,6.9l-4.5,1.2c-0.7-3.9,1.9-11,4.6-12.7l0,0l0.5-0.3c0.2-0.1,0.3-0.4,0.2-0.6C8.5,98.1,8.3,98,8.1,98
				c-0.3,0.1-0.7,0.2-1,0.3c-2.1,1-3.9,2.6-5.1,4.6L-1.9,100.6z M14.3,96.6c-1.8-0.1-3.4,1.4-3.4,3.2s1.4,3.4,3.2,3.4
				s3.4-1.4,3.4-3.2c0-0.9-0.3-1.7-0.9-2.4C16,97,15.2,96.6,14.3,96.6L14.3,96.6z"/>
		</g>
		<path class="st3" d="M-1.9,100.6c2.9-4.2,9.1-6.5,12.2-5.7l0.6,0.2c0.2,0.1,0.5,0,0.5-0.3c0.1-0.2,0-0.4-0.2-0.5
			c-0.3-0.2-0.6-0.3-0.9-0.5c-2.2-0.8-4.6-0.9-6.9-0.3L2.3,89c3.9-0.7,11,1.8,12.7,4.6c0.1,0.2,0.2,0.4,0.3,0.6
			c0.1,0.2,0.4,0.3,0.6,0.2c0.2-0.1,0.2-0.3,0.2-0.4c-0.1-0.3-0.2-0.7-0.3-1c-1-2.1-2.6-3.9-4.6-5.1l2.4-4c3.2,2.3,6.5,9.1,5.7,12.2
			c0,0.2-0.1,0.4-0.2,0.6c-0.1,0.2,0,0.5,0.3,0.5c0.2,0.1,0.4,0,0.5-0.2c0.2-0.3,0.3-0.6,0.5-0.9c0.8-2.2,0.9-4.6,0.3-6.9l4.5-1.2
			c0.7,3.9-1.8,11-4.6,12.7l-0.5,0.3c-0.2,0.1-0.3,0.4-0.2,0.6c0.1,0.2,0.3,0.2,0.4,0.2c0.3-0.1,0.7-0.2,1-0.3
			c2.1-1,3.9-2.6,5.1-4.6l4,2.4c-2.3,3.2-9.1,6.5-12.2,5.7l-0.6-0.2c-0.2-0.1-0.5,0-0.5,0.3c-0.1,0.2,0,0.4,0.2,0.5
			c0.3,0.2,0.6,0.3,0.9,0.5c2.2,0.8,4.6,0.9,6.9,0.3l1.2,4.5c-3.9,0.7-11-1.9-12.7-4.6c-0.1-0.2-0.2-0.4-0.3-0.6
			c-0.1-0.2-0.4-0.3-0.6-0.2c-0.2,0.1-0.2,0.3-0.2,0.4c0.1,0.3,0.2,0.7,0.3,1c1,2.1,2.6,3.9,4.6,5l-2.4,4c-3.2-2.2-6.5-9-5.7-12.2
			c0-0.2,0.1-0.4,0.2-0.6c0.1-0.2,0-0.5-0.3-0.5c-0.2-0.1-0.4,0-0.5,0.2c-0.2,0.3-0.3,0.6-0.5,0.9c-0.8,2.2-0.9,4.6-0.3,6.9
			l-4.5,1.2c-0.7-3.9,1.9-11,4.6-12.7l0,0l0.5-0.3c0.2-0.1,0.3-0.4,0.2-0.6C8.5,98.1,8.3,98,8.1,98c-0.3,0.1-0.7,0.2-1,0.3
			c-2.1,1-3.9,2.6-5.1,4.6L-1.9,100.6z M14.3,96.6c-1.8-0.1-3.4,1.4-3.4,3.2s1.4,3.4,3.2,3.4s3.4-1.4,3.4-3.2c0-0.9-0.3-1.7-0.9-2.4
			C16,97,15.2,96.6,14.3,96.6L14.3,96.6z"/>
		<path class="st4" d="M-1.9,100.6c2.9-4.2,9.1-6.5,12.2-5.7l0.6,0.2c0.2,0.1,0.5,0,0.5-0.3c0.1-0.2,0-0.4-0.2-0.5
			c-0.3-0.2-0.6-0.3-0.9-0.5c-2.2-0.8-4.6-0.9-6.9-0.3L2.3,89c3.9-0.7,11,1.8,12.7,4.6c0.1,0.2,0.2,0.4,0.3,0.6
			c0.1,0.2,0.4,0.3,0.6,0.2c0.2-0.1,0.2-0.3,0.2-0.4c-0.1-0.3-0.2-0.7-0.3-1c-1-2.1-2.6-3.9-4.6-5.1l2.4-4c3.2,2.3,6.5,9.1,5.7,12.2
			c0,0.2-0.1,0.4-0.2,0.6c-0.1,0.2,0,0.5,0.3,0.5c0.2,0.1,0.4,0,0.5-0.2c0.2-0.3,0.3-0.6,0.5-0.9c0.8-2.2,0.9-4.6,0.3-6.9l4.5-1.2
			c0.7,3.9-1.8,11-4.6,12.7l-0.5,0.3c-0.2,0.1-0.3,0.4-0.2,0.6c0.1,0.2,0.3,0.2,0.4,0.2c0.3-0.1,0.7-0.2,1-0.3
			c2.1-1,3.9-2.6,5.1-4.6l4,2.4c-2.3,3.2-9.1,6.5-12.2,5.7l-0.6-0.2c-0.2-0.1-0.5,0-0.5,0.3c-0.1,0.2,0,0.4,0.2,0.5
			c0.3,0.2,0.6,0.3,0.9,0.5c2.2,0.8,4.6,0.9,6.9,0.3l1.2,4.5c-3.9,0.7-11-1.9-12.7-4.6c-0.1-0.2-0.2-0.4-0.3-0.6
			c-0.1-0.2-0.4-0.3-0.6-0.2c-0.2,0.1-0.2,0.3-0.2,0.4c0.1,0.3,0.2,0.7,0.3,1c1,2.1,2.6,3.9,4.6,5l-2.4,4c-3.2-2.2-6.5-9-5.7-12.2
			c0-0.2,0.1-0.4,0.2-0.6c0.1-0.2,0-0.5-0.3-0.5c-0.2-0.1-0.4,0-0.5,0.2c-0.2,0.3-0.3,0.6-0.5,0.9c-0.8,2.2-0.9,4.6-0.3,6.9
			l-4.5,1.2c-0.7-3.9,1.9-11,4.6-12.7l0,0l0.5-0.3c0.2-0.1,0.3-0.4,0.2-0.6C8.5,98.1,8.3,98,8.1,98c-0.3,0.1-0.7,0.2-1,0.3
			c-2.1,1-3.9,2.6-5.1,4.6L-1.9,100.6z M14.3,96.6c-1.8-0.1-3.4,1.4-3.4,3.2s1.4,3.4,3.2,3.4s3.4-1.4,3.4-3.2c0-0.9-0.3-1.7-0.9-2.4
			C16,97,15.2,96.6,14.3,96.6L14.3,96.6z"/>
		<text transform="matrix(1 0 0 1 44 105.17)" class="st5 st6 st7">engine     </text>
		<rect x="-9.5" y="77" class="st8" width="47" height="47"/>
	</g>
</g>
</svg>
