<svg xmlns="http://www.w3.org/2000/svg" viewBox="0 0 150.87 47"><defs><style>.cls-1{fill:#3f51b5;}.cls-2{opacity:0.2;}.cls-3,.cls-5,.cls-7{fill:none;}.cls-3{stroke:#000;}.cls-3,.cls-5{stroke-miterlimit:10;stroke-width:0.5px;}.cls-4{fill:#fff;}.cls-5{stroke:#fff;}.cls-6{font-size:23px;fill:#666;font-family:Lato-Light, Lato;}</style></defs><title>Engine log inAsset 64</title><g id="Layer_2" data-name="Layer 2"><g id="Layer_1-2" data-name="Layer 1"><circle class="cls-1" cx="23.67" cy="22.94" r="22.22"/><g class="cls-2"><path d="M7.56,23.57c2.89-4.24,9.09-6.47,12.23-5.68l.61.17a.43.43,0,0,0,.37-.77,5.34,5.34,0,0,0-.89-.47A11.21,11.21,0,0,0,13,16.52L11.83,12c3.89-.7,11,1.85,12.66,4.64.11.18.21.37.31.55a.43.43,0,0,0,.8-.28,5.26,5.26,0,0,0-.3-1,11.21,11.21,0,0,0-4.63-5.08l2.37-4c3.25,2.26,6.47,9.09,5.68,12.23-.05.21-.11.41-.17.61a.43.43,0,0,0,.77.37,5.35,5.35,0,0,0,.47-.89,11.21,11.21,0,0,0,.32-6.87l4.52-1.17c.7,3.89-1.85,11-4.64,12.66l-.55.31a.43.43,0,0,0,.28.8,5.32,5.32,0,0,0,1-.3,11.21,11.21,0,0,0,5.08-4.63l4,2.37c-2.26,3.25-9.09,6.47-12.23,5.68l-.61-.17a.43.43,0,0,0-.37.77,5.32,5.32,0,0,0,.89.47,11.21,11.21,0,0,0,6.87.32l1.17,4.52c-3.89.7-11-1.85-12.66-4.64q-.17-.28-.31-.55a.43.43,0,0,0-.8.28,5.36,5.36,0,0,0,.3,1A11.21,11.21,0,0,0,26.67,35l-2.37,4C21.05,36.8,17.83,30,18.62,26.82c.05-.21.11-.41.17-.61a.43.43,0,0,0-.77-.37,5.36,5.36,0,0,0-.47.89,11.21,11.21,0,0,0-.32,6.87l-4.52,1.17c-.7-3.89,1.85-11,4.64-12.66h0l.55-.31a.43.43,0,0,0-.28-.8,5.41,5.41,0,0,0-1,.3,11.21,11.21,0,0,0-5.08,4.63Zm16.23-4a3.33,3.33,0,1,0,2.32,1.06A3.33,3.33,0,0,0,23.79,19.62Z"/><path class="cls-3" d="M7.56,23.57c2.89-4.24,9.09-6.47,12.23-5.68l.61.17a.43.43,0,0,0,.37-.77,5.34,5.34,0,0,0-.89-.47A11.21,11.21,0,0,0,13,16.52L11.83,12c3.89-.7,11,1.85,12.66,4.64.11.18.21.37.31.55a.43.43,0,0,0,.8-.28,5.26,5.26,0,0,0-.3-1,11.21,11.21,0,0,0-4.63-5.08l2.37-4c3.25,2.26,6.47,9.09,5.68,12.23-.05.21-.11.41-.17.61a.43.43,0,0,0,.77.37,5.35,5.35,0,0,0,.47-.89,11.21,11.21,0,0,0,.32-6.87l4.52-1.17c.7,3.89-1.85,11-4.64,12.66l-.55.31a.43.43,0,0,0,.28.8,5.32,5.32,0,0,0,1-.3,11.21,11.21,0,0,0,5.08-4.63l4,2.37c-2.26,3.25-9.09,6.47-12.23,5.68l-.61-.17a.43.43,0,0,0-.37.77,5.32,5.32,0,0,0,.89.47,11.21,11.21,0,0,0,6.87.32l1.17,4.52c-3.89.7-11-1.85-12.66-4.64q-.17-.28-.31-.55a.43.43,0,0,0-.8.28,5.36,5.36,0,0,0,.3,1A11.21,11.21,0,0,0,26.67,35l-2.37,4C21.05,36.8,17.83,30,18.62,26.82c.05-.21.11-.41.17-.61a.43.43,0,0,0-.77-.37,5.36,5.36,0,0,0-.47.89,11.21,11.21,0,0,0-.32,6.87l-4.52,1.17c-.7-3.89,1.85-11,4.64-12.66h0l.55-.31a.43.43,0,0,0-.28-.8,5.41,5.41,0,0,0-1,.3,11.21,11.21,0,0,0-5.08,4.63Zm16.23-4a3.33,3.33,0,1,0,2.32,1.06A3.33,3.33,0,0,0,23.79,19.62Z"/></g><path class="cls-4" d="M7.56,23.57c2.89-4.24,9.09-6.47,12.23-5.68l.61.17a.43.43,0,0,0,.37-.77,5.34,5.34,0,0,0-.89-.47A11.21,11.21,0,0,0,13,16.52L11.83,12c3.89-.7,11,1.85,12.66,4.64.11.18.21.37.31.55a.43.43,0,0,0,.8-.28,5.26,5.26,0,0,0-.3-1,11.21,11.21,0,0,0-4.63-5.08l2.37-4c3.25,2.26,6.47,9.09,5.68,12.23-.05.21-.11.41-.17.61a.43.43,0,0,0,.77.37,5.35,5.35,0,0,0,.47-.89,11.21,11.21,0,0,0,.32-6.87l4.52-1.17c.7,3.89-1.85,11-4.64,12.66l-.55.31a.43.43,0,0,0,.28.8,5.32,5.32,0,0,0,1-.3,11.21,11.21,0,0,0,5.08-4.63l4,2.37c-2.26,3.25-9.09,6.47-12.23,5.68l-.61-.17a.43.43,0,0,0-.37.77,5.32,5.32,0,0,0,.89.47,11.21,11.21,0,0,0,6.87.32l1.17,4.52c-3.89.7-11-1.85-12.66-4.64q-.17-.28-.31-.55a.43.43,0,0,0-.8.28,5.36,5.36,0,0,0,.3,1A11.21,11.21,0,0,0,26.67,35l-2.37,4C21.05,36.8,17.83,30,18.62,26.82c.05-.21.11-.41.17-.61a.43.43,0,0,0-.77-.37,5.36,5.36,0,0,0-.47.89,11.21,11.21,0,0,0-.32,6.87l-4.52,1.17c-.7-3.89,1.85-11,4.64-12.66h0l.55-.31a.43.43,0,0,0-.28-.8,5.41,5.41,0,0,0-1,.3,11.21,11.21,0,0,0-5.08,4.63Zm16.23-4a3.33,3.33,0,1,0,2.32,1.06A3.33,3.33,0,0,0,23.79,19.62Z"/><path class="cls-5" d="M7.56,23.57c2.89-4.24,9.09-6.47,12.23-5.68l.61.17a.43.43,0,0,0,.37-.77,5.34,5.34,0,0,0-.89-.47A11.21,11.21,0,0,0,13,16.52L11.83,12c3.89-.7,11,1.85,12.66,4.64.11.18.21.37.31.55a.43.43,0,0,0,.8-.28,5.26,5.26,0,0,0-.3-1,11.21,11.21,0,0,0-4.63-5.08l2.37-4c3.25,2.26,6.47,9.09,5.68,12.23-.05.21-.11.41-.17.61a.43.43,0,0,0,.77.37,5.35,5.35,0,0,0,.47-.89,11.21,11.21,0,0,0,.32-6.87l4.52-1.17c.7,3.89-1.85,11-4.64,12.66l-.55.31a.43.43,0,0,0,.28.8,5.32,5.32,0,0,0,1-.3,11.21,11.21,0,0,0,5.08-4.63l4,2.37c-2.26,3.25-9.09,6.47-12.23,5.68l-.61-.17a.43.43,0,0,0-.37.77,5.32,5.32,0,0,0,.89.47,11.21,11.21,0,0,0,6.87.32l1.17,4.52c-3.89.7-11-1.85-12.66-4.64q-.17-.28-.31-.55a.43.43,0,0,0-.8.28,5.36,5.36,0,0,0,.3,1A11.21,11.21,0,0,0,26.67,35l-2.37,4C21.05,36.8,17.83,30,18.62,26.82c.05-.21.11-.41.17-.61a.43.43,0,0,0-.77-.37,5.36,5.36,0,0,0-.47.89,11.21,11.21,0,0,0-.32,6.87l-4.52,1.17c-.7-3.89,1.85-11,4.64-12.66h0l.55-.31a.43.43,0,0,0-.28-.8,5.41,5.41,0,0,0-1,.3,11.21,11.21,0,0,0-5.08,4.63Zm16.23-4a3.33,3.33,0,1,0,2.32,1.06A3.33,3.33,0,0,0,23.79,19.62Z"/><text class="cls-6" transform="translate(53.5 28.17)"><tspan xml:space="preserve">engine     </tspan></text><rect class="cls-7" width="47" height="47"/></g></g></svg>